# xmcd CD database file
#
# Track frame offsets:
#	182
#	9532
#	22332
#	34365
#	45007
#	57750
#	67467
#	81762
#	94617
#	109480
#	124567
#	140797
#	152337
#	165762
#	180130
#	195707
#
# Disc length: 2779 seconds
#
# Revision: 0
# Processed by: cddbd v1.5.1PL0 Copyright (c) Steve Scherf et al.
# Submitted via: CDex 1.50
#
DISCID=cb0ad910
DTITLE=BENNY GOODMAN - Birth Of A Big Bang - CD1
DYEAR=1993
DGENRE=Jazz
TTITLE0=Blues Skies
TTITLE1=Dear Old Southland
TTITLE2=Sometimes I'm Happy
TTITLE3=King Porter
TTITLE4=Between The Devil And The Deep Blue Sea
TTITLE5=Madhouse
TTITLE6=If I Could Be With You
TTITLE7=When Buddha Smiles
TTITLE8=Stomin' At The Savoy
TTITLE9=Breakin'in A Pair If Shoes
TTITLE10=I Hope Gabriel Likes My Music
TTITLE11=Mutiny In The Parlor
TTITLE12=I'm Gonna Clap My Hands
TTITLE13=Swings Is Here
TTITLE14=Get Happy
TTITLE15=Christopher Colombus
EXTD=YEAR: 1993
EXTT0=
EXTT1=
EXTT2=
EXTT3=
EXTT4=
EXTT5=
EXTT6=
EXTT7=
EXTT8=
EXTT9=
EXTT10=
EXTT11=
EXTT12=
EXTT13=
EXTT14=
EXTT15=
PLAYORDER=
